# xmcd
# 
# Track frame offsets:
#     150
#     16730
#     34130
#     50852
# 
# Disc length: 906
# 
# Revision: 2
# Processed by: cddbd v1.5.2PL0 Copyright (c) Steve Scherf et al.
# Submitted via: fre:ac v1.0.17
# 
DISCID=2c038804
DTITLE=小松未歩 - ふたりの願い
DYEAR=2003
DGENRE=JPop
TTITLE0=ふたりの願い
TTITLE1=桜が舞うころ
TTITLE2=ふたりの願い instrumental
TTITLE3=桜が舞うころ instrumental
EXTD=
EXTT0=
EXTT1=
EXTT2=
EXTT3=
PLAYORDER=
